<svg width="640" height="640" viewBox="0 0 640 640" fill="none" xmlns="http://www.w3.org/2000/svg">
  <rect width="640" height="640" rx="48" fill="#05070f" />
  <circle cx="320" cy="320" r="200" fill="url(#paint0_linear)" />
  <path d="M320 200C323.866 200 327.701 200.26 331.477 200.766L320 320L220 320C255.348 321.17 287.922 300.28 310.121 268.665L320 200Z" fill="#38bdf8" />
  <path d="M320 320L420.464 360.241C415.25 379.428 403.303 395.343 386.276 404.236L320 320Z" fill="#2563eb" opacity="0.8" />
  <path d="M240 420C240 394.386 260.386 374 286 374H354C379.614 374 400 394.386 400 420V456C400 481.614 379.614 502 354 502H286C260.386 502 240 481.614 240 456V420Z" fill="#f8fafc" />
  <path d="M320 358L374 412" stroke="#111827" stroke-width="24" stroke-linecap="round" />
  <path d="M320 358L266 412" stroke="#111827" stroke-width="24" stroke-linecap="round" />
  <defs>
    <linearGradient id="paint0_linear" x1="320" y1="120" x2="320" y2="520" gradientUnits="userSpaceOnUse">
      <stop stop-color="#0ea5e9" />
      <stop offset="1" stop-color="#1d4ed8" />
    </linearGradient>
  </defs>
</svg>
